<svg xmlns="http://www.w3.org/2000/svg" width="56.317" height="38.089" viewBox="0 0 56.317 38.089">
  <g id="logo" transform="translate(-351.911 -76.761)">
    <path id="Path_7" data-name="Path 7" d="M362.5,96.372V79.3h6.39c3.428,0,6.631,1.734,6.631,5.714v5.737c0,3.934-3.211,5.621-6.631,5.621Zm6.538-4.05c1.182,0,2.146-.653,2.146-1.57V85.014a1.954,1.954,0,0,0-2.146-1.687h-2.192v8.995Z" transform="translate(-7.099 -2.508)" fill="#283949"/>
    <path id="Path_8" data-name="Path 8" d="M557.061,79.3V90.658c0,2.752,4.875,2.752,4.9,0V79.3h4.369V90.658c-.023,8.007-13.651,8.007-13.628,0V79.3Z" transform="translate(-182.513 -2.508)" fill="#283949"/>
    <path id="Path_9" data-name="Path 9" d="M763.043,86.907a4.328,4.328,0,0,1,2.41,4.68c-.435,2.752-2.293,4.416-6.079,4.416H752.4V78.9h6.849c3.257,0,5.644,1.975,5.551,5.232A3.414,3.414,0,0,1,763.043,86.907Zm-3.786-1.3a1.533,1.533,0,1,0,0-3.063h-2.511v3.063Zm-2.511,3.11v3.5h2.511a1.758,1.758,0,1,0,0-3.5Z" transform="translate(-366.688 -2.139)" fill="#283949"/>
    <path id="Path_10" data-name="Path 10" d="M942.4,79.3h4.315V96.38H942.4Z" transform="translate(-541.917 -2.508)" fill="#283949"/>
    <path id="Path_11" data-name="Path 11" d="M1038.382,90.359a6.863,6.863,0,0,1-6.149,3.833c-3.351,0-6.732-1.951-6.732-5.838V82.538c0-3.856,3.374-5.838,6.8-5.838a6.342,6.342,0,0,1,6.01,3.934l-3.522,1.423c-1.158-2.122-4.968-1.64-4.968.482v5.815c0,2.052,3.856,2.628,4.8.264Z" transform="translate(-673.589 20.65)" fill="#f14b6a"/>
    <path id="Path_12" data-name="Path 12" d="M1192.163,79.3h3.934l6.1,17.08h-4.633l-1.112-3.428H1191.9l-1.065,3.428H1186.2ZM1194,84.12l-1.135,4.991h2.558l-1.112-4.991Z" transform="translate(-821.796 18.252)" fill="#f14b6a"/>
    <path id="Path_13" data-name="Path 13" d="M1419.04,96.372h-5.38l-4.221-5.426h-.77v5.426H1404.3V79.3h6.826c3.522,0,6.25,1.617,6.344,5.621,0,3.156-1.275,4.944-3.351,5.6ZM1411.2,87.23a1.957,1.957,0,1,0,0-3.91h-2.534v3.91Z" transform="translate(-1022.94 18.252)" fill="#f14b6a"/>
    <path id="Path_14" data-name="Path 14" d="M1590.821,88.018c1.71,2.076,5.473,2.169,5.6.334.047-.964-1.516-1.516-2.915-1.71-2.752-.435-5.31-2.169-5.255-5.426.194-3.351,3.04-5.115,6.173-5.115a7.007,7.007,0,0,1,5.838,2.729L1597.437,81c-1.788-1.9-4.851-1.835-4.921.148.047.816.941,1.306,2.27,1.594,3.04.552,6.079,1.57,5.885,5.815-.288,3.3-3.615,5.092-6.756,5.092a7.45,7.45,0,0,1-5.815-3.063Z" transform="translate(-1192.451 21.203)" fill="#f14b6a"/>
  </g>
</svg>
